# xmcd CD database file
#
# Track frame offsets:
#	150
#	27297
#	44423
#	73900
#	87822
#	107143
#	137891
#
# Disc length: 2028 seconds
#
# Revision: 0
# Processed by: cddbd v1.5.2PL0 Copyright (c) Steve Scherf et al.
# Submitted via: CDex 1.75
#
DISCID=6007ea07
DTITLE=Session Noisses - Novels
DYEAR=2014
DGENRE=Jazz
TTITLE0=Caminos
TTITLE1=3-4
TTITLE2=Bosporus
TTITLE3=Noche y Viento (Piano Version)
TTITLE4=Delirium (Buleria)
TTITLE5=Transilvanian Session
TTITLE6=Gegenlicht
EXTD=YEAR: 2014
EXTT0=
EXTT1=
EXTT2=
EXTT3=
EXTT4=
EXTT5=
EXTT6=
PLAYORDER=
